<svg width="502" height="502" viewBox="0 0 502 502" fill="none" xmlns="http://www.w3.org/2000/svg">
<path d="M0 168.456C0 75.4205 75.4205 0 168.456 0H333.544C426.579 0 502 75.4205 502 168.456V333.544C502 426.579 426.579 502 333.544 502H168.456C75.4205 502 0 426.579 0 333.544V168.456Z" fill="#DEF438"/>
<path fill-rule="evenodd" clip-rule="evenodd" d="M262 163H250V177.996C241.978 178.675 234.468 180.226 227.472 182.655L227.468 182.657C217.886 186.031 209.634 190.897 202.726 197.261C195.816 203.495 190.467 211.082 186.68 220.007C182.887 228.815 181 238.685 181 249.6C181 259.04 182.484 268.279 185.45 277.312L185.453 277.321L185.456 277.329C188.566 286.256 193.302 294.238 199.658 301.271L199.665 301.278C206.038 308.193 214.157 313.802 223.999 318.116L224.009 318.121C231.588 321.339 240.256 323.313 250 324.059V338H262V324.371C269.469 324.213 276.214 323.417 282.229 321.973C289.077 320.362 295.009 318.41 300.018 316.109L300.028 316.104C305.144 313.68 309.415 311.108 312.825 308.381C316.18 305.696 318.766 303.32 320.556 301.255L321.198 300.513L313.785 293.841L313.115 294.472C299.7 307.097 283.812 313.4 265.4 313.4C255.116 313.4 246.06 311.62 238.21 308.088C230.327 304.541 223.779 299.821 218.547 293.936C213.305 288.038 209.303 281.219 206.545 273.472C203.916 265.714 202.6 257.625 202.6 249.2C202.6 240.239 203.983 232.095 206.735 224.756C209.624 217.27 213.623 210.853 218.725 205.489C223.829 200.123 229.85 195.933 236.795 192.919C243.862 189.91 251.526 188.4 259.8 188.4C265.457 188.4 270.562 189.058 275.125 190.362L275.132 190.364C279.863 191.678 283.979 193.38 287.49 195.46L287.497 195.464L287.504 195.468C291.15 197.552 294.048 199.942 296.223 202.629L296.239 202.65L296.257 202.669C298.584 205.255 300.17 207.872 301.051 210.516L301.279 211.2H318.334L317.715 209.796C315.679 205.181 313.032 200.905 309.777 196.971C306.629 193.004 302.671 189.596 297.915 186.743C293.151 183.884 287.591 181.651 281.247 180.031C275.521 178.569 269.103 177.77 262 177.624V163Z" fill="#4D52D2"/>
</svg>
